<svg width="316" height="50" viewBox="0 0 316 50" fill="none" xmlns="http://www.w3.org/2000/svg">
<path fill-rule="evenodd" clip-rule="evenodd" d="M38.0185 24.6428C41.8066 22.4524 44.1434 19.1666 45.029 14.7857C45.8653 10.5 44.8322 6.97617 41.9296 4.21426C39.027 1.40474 34.7715 -2.58398e-05 29.1632 -2.58398e-05H9.38628L0.30957 50H22.1527C27.9579 50 32.6561 48.7143 36.2474 46.1428C39.888 43.5714 42.028 40.1905 42.6675 36C43.4547 31.0952 41.905 27.3095 38.0185 24.6428ZM27.5058 10.8318L24.3718 23.0163H33.0695L17.9083 39.2398L21.0423 27.0553H12.3445L27.5058 10.8318Z" fill="#181818"/>
<path d="M88.5462 18.7575C87.9762 21.6392 86.4721 23.8242 84.0337 25.3125C86.5354 27.0542 87.5329 29.5717 87.0262 32.865C86.6146 35.6833 85.2212 37.9475 82.8462 39.6575C80.5029 41.3358 77.4946 42.175 73.8212 42.175H59.7612L65.6037 8.925H78.3337C81.9437 8.925 84.6829 9.85917 86.5512 11.7275C88.3879 13.5642 89.0529 15.9075 88.5462 18.7575ZM76.8137 17.095H73.6787L72.8712 21.56L76.5287 21.5125C77.9221 21.3225 78.7296 20.5942 78.9512 19.3275C79.0779 18.5675 78.9354 18.0133 78.5237 17.665C78.1121 17.285 77.5421 17.095 76.8137 17.095ZM77.7637 31.63C77.9854 30.2683 77.4471 29.4925 76.1487 29.3025L71.5412 29.255L70.6862 34.005H74.6762C75.4679 34.005 76.1329 33.7992 76.6712 33.3875C77.2412 32.9442 77.6054 32.3583 77.7637 31.63Z" fill="#181818"/>
<path d="M105.182 30.965L107.415 18.425H116.202L112.022 42.175H103.235L103.662 39.8475C101.794 41.8425 99.5299 42.84 96.8699 42.84C94.2732 42.84 92.3415 41.9058 91.0749 40.0375C89.8082 38.1375 89.4599 35.5092 90.0299 32.1525L92.4524 18.425H101.24L99.0074 31.2025C98.6274 33.3242 99.419 34.385 101.382 34.385C103.377 34.385 104.644 33.245 105.182 30.965Z" fill="#181818"/>
<path d="M135.641 21.085L137.779 8.925H146.566L140.724 42.175H131.936L132.316 40.085C130.48 41.9217 128.263 42.84 125.666 42.84C122.5 42.84 120.109 41.605 118.494 39.135C116.911 36.6333 116.356 33.6567 116.831 30.205C117.306 26.7533 118.652 23.8242 120.869 21.4175C123.117 18.9792 125.888 17.76 129.181 17.76C132.221 17.76 134.375 18.8683 135.641 21.085ZM129.039 34.765C130.306 34.765 131.382 34.385 132.269 33.625C133.156 32.865 133.726 31.8517 133.979 30.585L134.074 30.11C134.232 28.8117 134.011 27.7825 133.409 27.0225C132.807 26.2308 131.873 25.835 130.606 25.835C129.308 25.835 128.2 26.2467 127.281 27.07C126.363 27.8933 125.793 28.97 125.571 30.3C125.35 31.63 125.54 32.7067 126.141 33.53C126.775 34.3533 127.741 34.765 129.039 34.765Z" fill="#181818"/>
<path d="M153.38 42.175H144.593L147.3 26.785L150.673 7.5H159.46L156.04 26.9275L153.38 42.175Z" fill="#181818"/>
<path d="M172.269 17.76C175.943 17.76 178.761 18.9792 180.724 21.4175C182.719 23.8558 183.416 26.785 182.814 30.205C182.688 31.1233 182.387 32.1525 181.912 33.2925H166.427C166.965 34.8758 168.374 35.6675 170.654 35.6675C172.459 35.6675 173.916 35.1608 175.024 34.1475L180.107 39.2775C177.352 41.6525 173.932 42.84 169.847 42.84C165.54 42.84 162.374 41.5892 160.347 39.0875C158.289 36.5858 157.576 33.4983 158.209 29.825C158.779 26.3417 160.379 23.46 163.007 21.18C165.635 18.9 168.723 17.76 172.269 17.76ZM167.282 27.64H175.119C174.993 25.74 173.932 24.79 171.937 24.79C169.815 24.79 168.264 25.74 167.282 27.64Z" fill="#181818"/>
<path d="M203.11 31.6667H210.49L209.03 40.0067H210.41L209.63 44.3467H207.91L208.39 41.6667H200.89L200.41 44.3467H198.67L199.45 40.0067H200.69C201.49 39.1267 202.03 37.8934 202.31 36.3067L203.11 31.6667ZM202.73 40.0067H207.31L208.49 33.2867H204.55L204.03 36.3067C203.75 37.8267 203.317 39.06 202.73 40.0067ZM214.666 31.6667H222.086L220.326 41.6667H218.586L220.046 33.3467H216.106L215.406 37.4267C215.112 39.12 214.586 40.2867 213.826 40.9267C213.092 41.5267 212.106 41.7734 210.866 41.6667L211.146 40.0267C211.839 40.1067 212.386 39.9467 212.786 39.5467C213.186 39.1467 213.479 38.4267 213.666 37.3867L214.666 31.6667ZM227.942 31.6667H232.202L230.442 41.6667H228.722L229.362 38.0667H227.842L224.442 41.6667H222.342L225.922 37.9267C225.229 37.7 224.696 37.3 224.322 36.7267C223.936 36.1134 223.809 35.4534 223.942 34.7467C224.102 33.84 224.549 33.1 225.282 32.5267C226.016 31.9534 226.902 31.6667 227.942 31.6667ZM227.162 36.5067H229.622L230.202 33.2867H227.722C227.202 33.2867 226.749 33.44 226.362 33.7467C225.976 34.04 225.742 34.4267 225.662 34.9067C225.569 35.3867 225.662 35.7734 225.942 36.0667C226.236 36.36 226.642 36.5067 227.162 36.5067ZM242.7 41.9267C241.273 41.9267 240.126 41.4334 239.26 40.4467C238.406 39.4734 238.113 38.2267 238.38 36.7067C238.686 34.96 239.16 33.64 239.8 32.7467C240.466 31.8134 241.626 30.9734 243.28 30.2267L244.52 29.7067L245.66 29.2267C246.78 28.7867 247.466 28.16 247.72 27.3467L249.04 28.1467C248.866 28.6134 248.646 28.9867 248.38 29.2667C248.006 29.6667 247.693 29.9334 247.44 30.0667C246.773 30.44 246.38 30.6534 246.26 30.7067L245.64 30.9667L244.92 31.2467L244.24 31.5067C243.306 31.8667 242.593 32.24 242.1 32.6267C241.606 33 241.22 33.4734 240.94 34.0467C241.913 33.1134 243.133 32.6467 244.6 32.6467C245.786 32.6467 246.76 33.1 247.52 34.0067C248.293 34.9 248.566 36.02 248.34 37.3667C248.1 38.7267 247.466 39.8267 246.44 40.6667C245.426 41.5067 244.18 41.9267 242.7 41.9267ZM246.62 37.2267C246.766 36.3334 246.593 35.6067 246.1 35.0467C245.606 34.4734 244.906 34.1867 244 34.1867C243.12 34.1867 242.293 34.4467 241.52 34.9667C240.746 35.4867 240.28 36.1867 240.12 37.0667C239.96 37.9734 240.14 38.7334 240.66 39.3467C241.206 39.9467 241.94 40.2467 242.86 40.2467C243.806 40.2467 244.626 39.9667 245.32 39.4067C246.026 38.82 246.46 38.0934 246.62 37.2267ZM251.707 38.5867L258.467 31.6667H259.867L258.107 41.6667H256.387L257.587 34.7467L250.847 41.6667H249.447L251.207 31.6667H252.927L251.707 38.5867ZM268.577 34.5067C268.403 35.52 267.883 36.2267 267.017 36.6267C268.003 37.16 268.403 37.9934 268.217 39.1267C268.057 39.98 267.61 40.66 266.877 41.1667C266.143 41.6734 265.177 41.9267 263.977 41.9267C262.963 41.9267 262.143 41.7134 261.517 41.2867C260.89 40.86 260.477 40.2734 260.277 39.5267L261.797 38.7267C261.997 39.78 262.79 40.3067 264.177 40.3067C264.83 40.3067 265.37 40.1667 265.797 39.8867C266.223 39.5934 266.47 39.22 266.537 38.7667C266.617 38.3667 266.53 38.04 266.277 37.7867C266.023 37.5334 265.637 37.4067 265.117 37.4067H263.657L263.957 35.8267H265.017C265.523 35.8267 265.937 35.7067 266.257 35.4667C266.59 35.2134 266.797 34.8734 266.877 34.4467C266.943 34.0067 266.83 33.66 266.537 33.4067C266.243 33.14 265.803 33.0067 265.217 33.0067C264.097 33.0067 263.263 33.4867 262.717 34.4467L261.377 33.5867C262.35 32.1334 263.683 31.4067 265.377 31.4067C266.483 31.4067 267.33 31.72 267.917 32.3467C268.49 32.96 268.71 33.68 268.577 34.5067ZM277.602 35.8267L278.342 31.6667H280.082L278.322 41.6667H276.582L277.322 37.4867H272.142L271.402 41.6667H269.662L271.422 31.6667H273.162L272.422 35.8267H277.602ZM287.27 31.4067C288.777 31.4067 289.93 31.9267 290.73 32.9667C291.543 33.98 291.81 35.22 291.53 36.6867C291.517 36.8467 291.45 37.1067 291.33 37.4667H282.97C282.97 38.3467 283.243 39.04 283.79 39.5467C284.337 40.04 285.077 40.2867 286.01 40.2867C287.343 40.2867 288.403 39.7934 289.19 38.8067L290.49 39.7467C289.983 40.4267 289.317 40.96 288.49 41.3467C287.663 41.7334 286.77 41.9267 285.81 41.9267C284.237 41.9267 283.03 41.4 282.19 40.3467C281.363 39.2934 281.077 38 281.33 36.4667C281.583 35.0134 282.27 33.8067 283.39 32.8467C284.51 31.8867 285.803 31.4067 287.27 31.4067ZM283.23 35.9267H289.89C289.93 34.9934 289.703 34.28 289.21 33.7867C288.717 33.2934 288.037 33.0467 287.17 33.0467C286.237 33.0467 285.417 33.3067 284.71 33.8267C284.017 34.3334 283.523 35.0334 283.23 35.9267ZM297.39 41.9267C295.91 41.9267 294.737 41.3934 293.87 40.3267C293.017 39.26 292.724 37.9667 292.99 36.4467C293.257 34.9534 293.95 33.7467 295.07 32.8267C296.217 31.88 297.53 31.4067 299.01 31.4067C299.997 31.4067 300.857 31.64 301.59 32.1067C302.337 32.5734 302.857 33.2067 303.15 34.0067L301.61 34.8067C301.17 33.6734 300.257 33.1067 298.87 33.1067C297.857 33.1067 296.957 33.44 296.17 34.1067C295.384 34.7734 294.904 35.6 294.73 36.5867C294.557 37.6 294.737 38.46 295.27 39.1667C295.804 39.86 296.584 40.2067 297.61 40.2067C298.277 40.2067 298.897 40.0534 299.47 39.7467C300.044 39.4267 300.51 38.9867 300.87 38.4267L302.27 39.3467C301.764 40.16 301.077 40.7934 300.21 41.2467C299.357 41.7 298.417 41.9267 297.39 41.9267ZM313.191 33.5267L313.511 31.6667H315.251L313.491 41.6667H311.751L312.011 40.2467C310.971 41.3667 309.637 41.9267 308.011 41.9267C306.571 41.9267 305.444 41.38 304.631 40.2867C303.817 39.2067 303.544 37.9267 303.811 36.4467C304.064 34.9134 304.737 33.6934 305.831 32.7867C306.911 31.8667 308.131 31.4067 309.491 31.4067C311.224 31.4067 312.457 32.1134 313.191 33.5267ZM312.611 36.7467C312.824 35.6134 312.624 34.72 312.011 34.0667C311.411 33.4134 310.611 33.0867 309.611 33.0867C308.664 33.0867 307.797 33.4 307.011 34.0267C306.211 34.6667 305.724 35.52 305.551 36.5867C305.364 37.6267 305.551 38.4934 306.111 39.1867C306.697 39.8934 307.491 40.2467 308.491 40.2467C309.504 40.2467 310.397 39.92 311.171 39.2667C311.944 38.6 312.424 37.76 312.611 36.7467Z" fill="#B6C1CE"/>
</svg>
